<svg xmlns="http://www.w3.org/2000/svg" viewBox="0 0 1280 320" role="img" aria-label="Rafael González Escobar — Tech Lead Android y fundador de Caelyn Tech">
  <defs>
    <radialGradient id="sky" cx="50%" cy="60%" r="85%">
      <stop offset="0%" stop-color="#0f2740"/>
      <stop offset="55%" stop-color="#0a1a2d"/>
      <stop offset="100%" stop-color="#07101d"/>
    </radialGradient>
    <linearGradient id="title" x1="0" y1="0" x2="0" y2="1">
      <stop offset="0.2" stop-color="#ffffff"/>
      <stop offset="1" stop-color="#9fd9e3"/>
    </linearGradient>
  </defs>
  <rect width="1280" height="320" fill="url(#sky)"/>

  <circle cx="90" cy="46" r="2" fill="#cfeef3" opacity="0.6"/>
  <circle cx="210" cy="282" r="1.6" fill="#cfeef3" opacity="0.4"/>
  <circle cx="376" cy="38" r="1.8" fill="#cfeef3" opacity="0.5"/>
  <circle cx="492" cy="270" r="2.2" fill="#cfeef3" opacity="0.45"/>
  <circle cx="608" cy="52" r="1.5" fill="#cfeef3" opacity="0.55"/>
  <circle cx="704" cy="244" r="1.8" fill="#cfeef3" opacity="0.4"/>
  <circle cx="836" cy="64" r="2" fill="#cfeef3" opacity="0.5"/>
  <circle cx="948" cy="286" r="1.6" fill="#cfeef3" opacity="0.45"/>
  <circle cx="1064" cy="44" r="2.2" fill="#cfeef3" opacity="0.55"/>
  <circle cx="1176" cy="252" r="1.7" fill="#cfeef3" opacity="0.4"/>
  <circle cx="1238" cy="120" r="2" fill="#cfeef3" opacity="0.5"/>
  <circle cx="42" cy="190" r="1.6" fill="#cfeef3" opacity="0.45"/>

  <circle cx="300" cy="92" r="2.4" fill="#cfeef3">
    <animate attributeName="opacity" values="0.2;0.9;0.2" dur="3.4s" repeatCount="indefinite"/>
  </circle>
  <circle cx="760" cy="120" r="2" fill="#cfeef3">
    <animate attributeName="opacity" values="0.85;0.25;0.85" dur="4.2s" repeatCount="indefinite"/>
  </circle>
  <circle cx="1120" cy="200" r="2.4" fill="#cfeef3">
    <animate attributeName="opacity" values="0.3;1;0.3" dur="2.8s" repeatCount="indefinite"/>
  </circle>
  <circle cx="540" cy="180" r="1.8" fill="#cfeef3">
    <animate attributeName="opacity" values="0.7;0.2;0.7" dur="5s" repeatCount="indefinite"/>
  </circle>
  <circle cx="990" cy="90" r="1.8" fill="#cfeef3">
    <animate attributeName="opacity" values="0.25;0.8;0.25" dur="3.8s" repeatCount="indefinite"/>
  </circle>

  <g transform="translate(62,50) scale(0.43)">
    <path d="M362 150 A150 150 0 1 0 362 362" fill="none" stroke="#3fd0e0" stroke-width="64" stroke-linecap="round"/>
    <g>
      <circle cx="406" cy="256" r="28" fill="#eaf6f8"/>
      <animateTransform attributeName="transform" type="rotate" from="0 256 256" to="360 256 256" dur="14s" repeatCount="indefinite"/>
    </g>
  </g>

  <text x="330" y="152" font-family="-apple-system,'Segoe UI',Helvetica,Arial,sans-serif" font-size="56" font-weight="600" letter-spacing="1" fill="url(#title)">Rafael González Escobar</text>
  <text x="332" y="200" font-family="-apple-system,'Segoe UI',Helvetica,Arial,sans-serif" font-size="25" font-weight="500" fill="#3fd0e0">Tech Lead Android · Fundador de Caelyn Tech</text>
  <text x="332" y="240" font-family="-apple-system,'Segoe UI',Helvetica,Arial,sans-serif" font-size="19" fill="#8aa0ad">Kotlin Multiplatform · Jetpack Compose · IA aplicada — Córdoba, España</text>
</svg>
